<svg width="18" height="22" viewBox="0 0 18 22" fill="none" xmlns="http://www.w3.org/2000/svg">
<path d="M2.70586 22V0.579999H9.54586C12.3059 0.579999 14.3159 1.14 15.5759 2.26C16.8559 3.38 17.4959 4.92 17.4959 6.88C17.4959 8.04 17.2359 9.13 16.7159 10.15C16.1959 11.17 15.3259 11.99 14.1059 12.61C12.9059 13.23 11.2659 13.54 9.18586 13.54H7.23586V22H2.70586ZM0.305859 18.79V15.88H11.8559V18.79H0.305859ZM0.305859 13.54V9.82H9.09586V13.54H0.305859ZM8.73586 9.82C9.59586 9.82 10.3359 9.73 10.9559 9.55C11.5759 9.35 12.0559 9.04 12.3959 8.62C12.7359 8.2 12.9059 7.67 12.9059 7.03C12.9059 6.11 12.6159 5.43 12.0359 4.99C11.4559 4.53 10.5459 4.3 9.30586 4.3H7.23586V9.82H8.73586Z" fill="#262930"/>
</svg>
