<svg width="18" height="22" viewBox="0 0 18 22" fill="none" xmlns="http://www.w3.org/2000/svg">
<path d="M2.6998 22V0.580002H9.53981C12.2998 0.580002 14.3098 1.14 15.5698 2.26C16.8498 3.38 17.4898 4.92 17.4898 6.88C17.4898 8.04 17.2298 9.13 16.7098 10.15C16.1898 11.17 15.3198 11.99 14.0998 12.61C12.8998 13.23 11.2598 13.54 9.17981 13.54H7.2298V22H2.6998ZM0.299805 18.79V15.88H11.8498V18.79H0.299805ZM0.299805 13.54V9.82H9.0898V13.54H0.299805ZM8.7298 9.82C9.58981 9.82 10.3298 9.73 10.9498 9.55C11.5698 9.35 12.0498 9.04 12.3898 8.62C12.7298 8.2 12.8998 7.67 12.8998 7.03C12.8998 6.11 12.6098 5.43 12.0298 4.99C11.4498 4.53 10.5398 4.3 9.2998 4.3H7.2298V9.82H8.7298Z" fill="#FE8934"/>
</svg>
